<?xml version="1.0" encoding="UTF-8" standalone="no"?><!DOCTYPE svg PUBLIC "-//W3C//DTD SVG 1.1//EN" "http://www.w3.org/Graphics/SVG/1.1/DTD/svg11.dtd"><svg width="100%" height="100%" viewBox="0 0 865 748" version="1.1" xmlns="http://www.w3.org/2000/svg" xmlns:xlink="http://www.w3.org/1999/xlink" xml:space="preserve" xmlns:serif="http://www.serif.com/" style="fill-rule:evenodd;clip-rule:evenodd;stroke-linejoin:round;stroke-miterlimit:2;"><path d="M309.313,575.135c-48.549,-120.378 -79.342,-318.75 -21.59,-451.487c34.026,-78.206 91.009,-118.33 190.373,-123.645c1.148,-0.061 2.13,0.821 2.192,1.969c0.061,1.148 -0.821,2.13 -1.969,2.192c-97.448,5.213 -153.405,44.449 -186.775,121.147c-56.566,130.011 -27.397,323.429 19.686,443.373c10.992,-38.127 17.547,-81.123 18.2,-127.6c-0.005,0.388 0.098,0.766 0.293,1.094l-0.022,-0.054c0,-0 0.474,0.585 0.5,0.606c0.369,0.3 0.833,0.466 1.313,0.466l0.97,-3.927l0.07,0.039l0.492,0.393c0.038,0.041 0.424,0.313 1.19,2.86c2.386,7.929 12.218,46.489 50.824,233.897c0.151,0.731 -0.102,1.488 -0.661,1.982c-0.56,0.494 -1.341,0.651 -2.048,0.411c-8.978,-3.046 -18.491,-10.634 -28.047,-22.08c-13.984,-16.751 -28.184,-41.832 -41.26,-72.619c-0.423,-0.996 -0.845,-1.998 -1.266,-3.006c-51.316,160.574 -182.177,228.808 -275.858,97.672c-31.24,-43.73 -40.157,-102.425 -34.175,-158.899c5.973,-56.388 26.79,-110.53 54.835,-145.263c18.989,-23.518 41.329,-38.148 64.604,-38.959c23.29,-0.812 47.698,12.15 70.731,44.41c0.668,0.936 0.451,2.238 -0.485,2.906c-0.936,0.668 -2.238,0.451 -2.906,-0.485c-21.952,-30.746 -44.999,-43.441 -67.195,-42.667c-22.211,0.774 -43.387,14.971 -61.508,37.413c-27.619,34.206 -48.051,87.553 -53.933,143.084c-5.873,55.446 2.75,113.103 33.422,156.038c28.737,40.227 60.941,61.259 93.227,66.199c32.183,4.924 64.366,-6.174 93.098,-29.896c35.142,-29.015 65.099,-76.823 83.677,-137.561Zm23.91,-120.095c-1.73,43.612 -8.649,83.951 -19.507,119.869c1.046,2.574 2.101,5.112 3.163,7.612c12.885,30.338 26.843,55.071 40.623,71.578c7.722,9.25 15.345,15.896 22.69,19.38c-29.389,-142.571 -41.788,-197.375 -46.969,-218.439Z"/><path d="M430.942,554.674c-1.279,-21.241 2.922,-46.132 15.933,-73.773c3.933,-8.355 8.697,-12.302 13.511,-12.965c4.871,-0.671 10.112,1.969 15.111,7.648c8.408,9.55 16.485,27.912 21.863,50.943c5.874,25.155 8.572,55.9 5.131,86.654c4.853,-10.025 12.385,-25.764 20.976,-42.444c14.092,-27.363 31.063,-57.203 43.772,-68.881c2.867,-2.634 5.566,-4.382 7.975,-5.13c1.929,-0.599 3.718,-0.598 5.343,-0.014c2.272,0.817 4.322,2.841 5.831,6.507c1.891,4.595 3.047,12.071 3.151,23.064c0.229,24.193 -4.425,49.834 -3.119,69.064c0.617,9.088 2.535,16.697 7.242,21.825c4.646,5.062 11.986,7.56 23.192,6.88c2.883,-0.175 5.48,-2.013 7.939,-4.936c4.204,-4.997 7.842,-13.069 11.047,-22.776c12.83,-38.86 18.28,-103.477 19.584,-108.964c0.266,-1.119 1.39,-1.811 2.509,-1.545c1.119,0.266 1.811,1.39 1.545,2.509c-1.308,5.504 -6.81,70.321 -19.681,109.306c-3.404,10.31 -7.35,18.845 -11.815,24.152c-3.321,3.947 -6.983,6.177 -10.875,6.413c-12.859,0.78 -21.184,-2.413 -26.515,-8.222c-5.27,-5.742 -7.639,-14.185 -8.329,-24.36c-1.31,-19.297 3.339,-45.029 3.11,-69.307c-0.097,-10.25 -1.074,-17.233 -2.837,-21.517c-0.928,-2.255 -1.99,-3.67 -3.387,-4.172c-1.073,-0.386 -2.272,-0.169 -3.59,0.407c-1.705,0.745 -3.54,2.083 -5.499,3.884c-12.483,11.47 -29.045,40.845 -42.887,67.721c-11.169,21.687 -20.548,41.782 -24.567,49.779c-0.838,1.667 -1.491,2.855 -1.901,3.508c-1.151,6.792 -2.624,13.546 -4.451,20.201c-2.785,10.147 -5.904,16.876 -9.155,20.803c-2.504,3.025 -5.158,4.514 -7.821,4.831c-4.243,0.506 -8.801,-2.067 -13.235,-7.372c-9.12,-10.91 -18.413,-33.668 -26.152,-58.666c-11.545,-37.29 -19.7,-79.544 -19.164,-94.322c0.042,-1.149 1.008,-2.048 2.157,-2.006c1.149,0.042 2.048,1.008 2.006,2.157c-0.29,7.988 2.025,24.116 6.052,43.115Zm64.745,75.568c-7.27,4.048 -17.418,2.725 -27.631,-3.642c-9.994,-6.23 -20.107,-17.338 -27.282,-32.496c1.001,3.49 2.035,6.963 3.097,10.394c7.542,24.362 16.481,46.593 25.369,57.226c3.285,3.93 6.4,6.282 9.544,5.906c1.769,-0.211 3.441,-1.342 5.105,-3.351c3.001,-3.625 5.776,-9.882 8.346,-19.249c1.34,-4.884 2.487,-9.822 3.452,-14.789Zm1.088,-6.065c5.592,-33.978 3.037,-68.831 -3.471,-96.702c-5.182,-22.189 -12.833,-39.936 -20.933,-49.137c-3.845,-4.368 -7.669,-6.789 -11.416,-6.274c-3.804,0.524 -7.202,4.01 -10.309,10.611c-33.602,71.383 -6.948,123.83 19.614,140.389c10.302,6.422 20.519,7.438 26.515,1.112Z"/><path d="M720.292,458.68c0.045,-0.176 0.091,-0.317 0.134,-0.424l0.23,-0.444l0.358,-0.423c1.586,-1.46 3.412,-1.698 5.383,-0.765c1.95,0.923 4.223,3.428 6.35,7.426c8.633,16.225 16.775,58.568 3.925,102.294c3.447,11.265 7.666,20.171 13.095,24.152c7.264,5.326 14.395,7.896 21.338,7.995c16.507,0.235 31.694,-13.27 44.858,-35.321c29.074,-48.702 47.581,-139.036 44.54,-223.331c-0.041,-1.149 0.858,-2.116 2.007,-2.157c1.149,-0.041 2.116,0.858 2.157,2.007c3.073,85.167 -15.752,176.411 -45.126,225.617c-14.113,23.64 -30.798,37.603 -48.495,37.351c-7.715,-0.11 -15.67,-2.883 -23.742,-8.801c-5.021,-3.682 -9.29,-11.117 -12.778,-20.775c-5.927,17.24 -15.268,34.497 -29.273,50.264c-2.707,3.047 -5.744,4.555 -8.937,4.817c-3.106,0.255 -6.406,-0.692 -9.751,-2.767c-4.076,-2.529 -8.275,-6.775 -12.297,-12.374c-13.62,-18.958 -25.456,-53.678 -24.942,-87.22c0.345,-22.545 6.267,-44.538 20.787,-60.952c10.35,-11.701 19.3,-15.569 27.329,-15.522c7.984,0.047 15.175,4.049 22.154,8.591c0.304,0.198 0.539,0.462 0.699,0.761Zm12.049,107.738c-0.027,-0.09 -0.053,-0.179 -0.08,-0.269c-8.643,-29.242 -11.813,-72.897 -12.295,-94.384c-0.107,-4.769 -0.077,-8.469 0.049,-10.717c-0.673,0.76 -1.819,0.933 -2.695,0.363c-6.291,-4.095 -12.707,-7.874 -19.905,-7.917c-7.154,-0.042 -14.962,3.691 -24.183,14.116c-13.868,15.678 -19.412,36.722 -19.741,58.255c-0.499,32.575 10.932,66.313 24.16,84.725c3.648,5.078 7.413,8.971 11.11,11.264c2.485,1.541 4.907,2.344 7.213,2.155c2.219,-0.182 4.283,-1.314 6.163,-3.432c15.052,-16.945 24.576,-35.66 30.205,-54.16Zm2.165,-7.857c9.903,-39.991 2.499,-77.636 -5.439,-92.553c-1.347,-2.532 -2.662,-4.365 -3.936,-5.3c-0.3,-0.22 -0.579,-0.398 -0.837,-0.42c-0.082,1.563 -0.281,6.11 -0.163,11.384c0.443,19.719 3.151,58.332 10.375,86.89Z"/></svg>