<?xml version="1.0" encoding="UTF-8"?>
<svg width="211" height="180" viewBox="0 0 210.429614 179.804437" xmlns="http://www.w3.org/2000/svg">
  <g stroke="none" stroke-width="1" fill="none" fill-rule="evenodd">
    <g transform="translate(-33.1189, -31)" fill="currentColor" fill-rule="nonzero">
      <path
        transform="translate(138.3337, 120.9022) scale(-1, 1) rotate(-180) translate(-138.3337, -120.9022)"
        d="M138.5,209.838272 C134.9,209.338272 129.2,207.338272 124.2,204.938272 C114.9,200.238272 110.3,195.338272 104.5,183.938272 C97.5,169.938272 96.7,160.538272 100,131.738272 C102.8,108.038272 103.6,103.138272 106.7,90.0382716 L109.4,78.6382716 L106.5,73.1382716 C100.8,62.3382716 81.6,39.3382716 75.7,36.2382716 C69.2,32.9382716 56.3,36.8382716 49.7,44.3382716 C39.7,55.5382716 35,70.1382716 37,84.2382716 C39.9,104.338272 52.1,124.738272 62.2,126.138272 C69.2,127.238272 75.8,123.538272 79.6,116.338272 C81.8,112.238272 83,111.938272 82.1,115.738272 C79.4,126.838272 67.6,132.838272 57.6,127.938272 C44.3,121.538272 32,94.9382716 33.2,75.1382716 C34.7,51.9382716 50.2,32.6382716 68.7,31.1382716 C73,30.7382716 74.7,31.1382716 78.3,33.2382716 C84.3,36.7382716 97.1,51.7382716 106.5,66.1382716 L111.6,73.8382716 L114.9,63.5382716 C118.1,53.3382716 122.6,45.9382716 125.5,45.9382716 C128,45.9382716 127.6,49.3382716 123.2,66.4382716 C119.6,80.0382716 116.7,94.9382716 116.1,102.238272 C116,102.738272 115,102.938272 113.8,102.738272 C111.6,102.438272 111.5,102.038272 111.8,94.9382716 C112,90.8382716 111.9,87.7382716 111.6,88.0382716 C110.4,89.1382716 106.1,111.138272 105.1,120.638272 C104.5,126.038272 103.6,134.238272 103,138.938272 C101.6,150.838272 101.8,164.538272 103.4,170.538272 C105.3,177.838272 111.6,189.338272 116.1,193.738272 C121.1,198.738272 129.3,203.038272 140.5,206.438272 C145.5,207.938272 149.9,209.538272 150.5,210.038272 C151.6,211.138272 146.8,211.038272 138.5,209.838272 Z M118,71.6382716 C119.2,67.2382716 120,63.5382716 119.7,63.3382716 C119.2,62.8382716 114,77.8382716 114,79.9382716 C114,83.0382716 115.9,79.0382716 118,71.6382716 Z M120.7,60.2382716 C120.3,59.9382716 120,60.2382716 120,60.9382716 C120,61.6382716 120.3,61.9382716 120.7,61.6382716 C121,61.2382716 121,60.6382716 120.7,60.2382716 Z M240.7,131.238272 C240.3,130.938272 240,126.638272 240,121.838272 C240,109.238272 236.3,93.3382716 230.6,80.9382716 C225.1,69.0382716 220.7,65.1382716 216.8,68.6382716 C213.3,71.8382716 212.3,75.2382716 211.8,85.4382716 C211.4,94.8382716 210.1,99.4382716 207.6,101.138272 C205.4,102.638272 199.3,101.938272 196.8,99.9382716 C192.9,96.9382716 191.2,92.2382716 190.6,83.0382716 C190.3,76.8382716 189.5,73.4382716 187.5,69.4382716 C182.2,58.5382716 180,59.6382716 178.9,73.8382716 C178,85.3382716 176.7,88.9382716 172.7,90.4382716 C170.1,91.3382716 169.5,91.0382716 166.9,87.9382716 C165.4,86.0382716 162.4,80.6382716 160.4,75.9382716 C158.4,71.2382716 156.7,67.3382716 156.6,67.2382716 C156.6,67.1382716 156.5,71.2382716 156.5,76.2382716 C156.4,83.4382716 156,86.4382716 154.3,90.1382716 C150.4,98.7382716 143.9,100.438272 140.7,93.5382716 C139.7,91.4382716 138.2,89.0382716 137.4,88.2382716 C133.4,84.2382716 139.2,55.7382716 145.2,49.7382716 C149.2,45.7382716 149.5,46.0382716 161.8,70.1382716 C168.6,83.2382716 171.3,87.0382716 173,85.3382716 C173.5,84.8382716 174.3,80.1382716 174.6,74.9382716 C175.3,64.6382716 176.8,59.6382716 179.7,58.1382716 C182.6,56.5382716 185.8,58.5382716 189.2,63.9382716 C190.9,66.6382716 192.4,68.9382716 192.6,68.9382716 C192.8,68.9382716 193.6,67.6382716 194.4,66.0382716 C195.2,64.5382716 197.3,62.6382716 199,61.9382716 C201.8,60.7382716 202.3,60.8382716 204.5,62.9382716 C205.8,64.1382716 207.4,66.4382716 208.1,68.0382716 L209.3,71.0382716 L211.7,67.4382716 C215.7,61.5382716 222,61.5382716 227.6,67.4382716 C231.3,71.4382716 238.1,87.1382716 241.2,98.9382716 C244.6,112.038272 244.2,134.838272 240.7,131.238272 Z M206,96.0382716 C207.8,92.5382716 207.2,77.5382716 204.9,71.4382716 C202.8,65.6382716 201.3,64.7382716 198.8,67.7382716 C195,72.0382716 194.8,73.7382716 196.4,82.9382716 C197.3,87.7382716 197.8,92.3382716 197.5,93.1382716 C196,97.0382716 204,99.7382716 206,96.0382716 Z M148.4,92.0382716 C151.7,88.3382716 153.2,81.1382716 152.5,71.7382716 C152.1,66.8382716 151.5,62.9382716 151.1,62.9382716 C149.1,62.9382716 146,66.4382716 144,71.1382716 C142.1,75.5382716 141.8,77.5382716 142.3,83.7382716 C143,93.3382716 144.9,95.8382716 148.4,92.0382716 Z M149.5,55.0382716 C148.5,51.7382716 147.1,52.5382716 145,57.5382716 C142.1,64.1382716 142.5,64.8382716 146.6,60.8382716 C149.4,58.0382716 150.1,56.6382716 149.5,55.0382716 Z"
      />
    </g>
  </g>
</svg>
